<?xml version="1.0" standalone="no"?>
<!DOCTYPE svg PUBLIC "-//W3C//DTD SVG 20010904//EN"
 "http://www.w3.org/TR/2001/REC-SVG-20010904/DTD/svg10.dtd">
<svg version="1.0" xmlns="http://www.w3.org/2000/svg"
 width="72.000000pt" height="72.000000pt" viewBox="0 0 72.000000 72.000000"
 preserveAspectRatio="xMidYMid meet">
<metadata>
Created by potrace 1.14, written by Peter Selinger 2001-2017
</metadata>
<g transform="translate(0.000000,72.000000) scale(0.100000,-0.100000)"
fill="#000000" stroke="none">
<path d="M526 526 c-85 -85 -151 -157 -148 -160 3 -3 1 -6 -4 -6 -6 0 -21 -10
-33 -21 -19 -18 -25 -19 -32 -8 -5 8 -9 11 -9 7 0 -7 -50 40 -50 47 0 5 -60
65 -65 65 -5 0 -55 50 -55 54 0 7 -70 74 -70 68 0 -4 -5 0 -10 8 -7 12 -12 12
-22 2 -6 -6 -8 -12 -2 -12 5 0 10 -9 10 -20 0 -11 -3 -20 -6 -20 -6 0 -7 -510
0 -511 3 -1 149 -2 324 -3 289 -1 322 1 340 16 12 10 16 17 11 18 -12 0 -14
100 -2 100 4 0 5 5 1 12 -11 18 -13 68 -2 68 5 0 6 5 2 12 -11 18 -13 68 -2
68 5 0 6 5 2 12 -11 18 -13 68 -2 68 5 0 6 5 2 12 -11 18 -13 68 -2 68 5 0 6
5 2 12 -11 18 -13 68 -2 68 5 0 6 5 2 12 -12 19 -12 68 -1 68 8 0 8 3 0 11 -6
6 -9 18 -6 25 14 36 -28 2 -171 -140z"/>
</g>
</svg>
